<svg width="29" height="29" viewBox="0 0 29 29" fill="none" xmlns="http://www.w3.org/2000/svg">
<path d="M23.0348 17.9711C23.6586 17.9711 24.2569 18.216 24.698 18.652C25.1391 19.0879 25.3869 19.6792 25.3869 20.2957V22.6203C25.3869 23.2369 25.1391 23.8281 24.698 24.2641C24.2569 24.7 23.6586 24.945 23.0348 24.945H20.6827C20.0589 24.945 19.4606 24.7 19.0195 24.2641C18.5784 23.8281 18.3305 23.2369 18.3305 22.6203V20.2957C18.3305 19.6792 18.5784 19.0879 19.0195 18.652C19.4606 18.216 20.0589 17.9711 20.6827 17.9711V15.6465H8.92203V17.9711C9.54586 17.9711 10.1441 18.216 10.5852 18.652C11.0263 19.0879 11.2742 19.6792 11.2742 20.2957V22.6203C11.2742 23.2369 11.0263 23.8281 10.5852 24.2641C10.1441 24.7 9.54586 24.945 8.92203 24.945H6.5699C5.94608 24.945 5.34781 24.7 4.9067 24.2641C4.46559 23.8281 4.21777 23.2369 4.21777 22.6203V20.2957C4.21777 19.6792 4.46559 19.0879 4.9067 18.652C5.34781 18.216 5.94608 17.9711 6.5699 17.9711V15.6465C6.5699 15.03 6.81772 14.4387 7.25882 14.0028C7.69993 13.5668 8.29821 13.3219 8.92203 13.3219H13.6263V10.9973C13.0025 10.9973 12.4042 10.7524 11.9631 10.3164C11.522 9.88047 11.2742 9.2892 11.2742 8.67267V6.34806C11.2742 5.73153 11.522 5.14026 11.9631 4.70431C12.4042 4.26836 13.0025 4.02345 13.6263 4.02345H15.9784C16.6022 4.02345 17.2005 4.26836 17.6416 4.70431C18.0827 5.14026 18.3305 5.73153 18.3305 6.34806V8.67267C18.3305 9.2892 18.0827 9.88047 17.6416 10.3164C17.2005 10.7524 16.6022 10.9973 15.9784 10.9973V13.3219H20.6827C21.3065 13.3219 21.9048 13.5668 22.3459 14.0028C22.787 14.4387 23.0348 15.03 23.0348 15.6465V17.9711ZM6.5699 20.2957V22.6203H8.92203V20.2957H6.5699ZM20.6827 20.2957V22.6203H23.0348V20.2957H20.6827ZM13.6263 6.34806V8.67267H15.9784V6.34806H13.6263Z" fill="#F7A607"/>
</svg>
